<svg width="638" height="170" viewBox="0 0 638 170" fill="none" xmlns="http://www.w3.org/2000/svg">
<path d="M210.337 25.6163C213.194 25.3461 217.176 25.7193 219.881 26.7036C226.42 29.083 231.151 33.407 234.304 39.5182C237.53 46.1928 237.761 51.4206 235.6 58.8508C234.196 63.6824 227.81 71.9843 221.983 73.1233C221.511 73.215 217.099 71.7266 216.311 71.4732C212.288 70.2001 208.279 68.8823 204.285 67.5204C198.708 65.6489 193.097 63.9969 187.485 62.0782C186.579 61.788 185.681 61.4728 184.793 61.1331C185.785 60.8643 187.202 60.3066 188.262 59.9733C191.938 58.8471 195.583 57.6206 199.191 56.2953C200.087 56.8795 200.83 57.3919 201.859 57.7599C204.141 58.627 206.937 57.1461 207.61 54.8541C208.319 52.3226 207.085 49.4442 204.384 48.7903C200.993 47.9695 199.043 50.1129 198.219 53.1319C197.232 53.5721 194.86 54.2839 193.753 54.644C191.421 55.3874 189.098 56.1613 186.786 56.9653C185.691 57.3346 184.527 57.6799 183.453 58.0868L198.37 37.7207C200.357 34.9908 202.274 32.2368 204.371 29.5846C206.997 26.2647 205.999 25.933 210.337 25.6163Z" fill="#628D8D"/>
<path d="M183.803 64.9983C184.981 65.159 188.175 66.2587 189.434 66.6559L201.804 70.6265C206.711 72.1434 211.601 73.7166 216.472 75.3451C218.018 75.87 219.707 76.2869 221.178 76.9373C221.768 77.1976 222.546 79.1504 222.81 79.8025C225.246 85.872 225.19 92.6481 222.654 98.6761C218.189 109.015 208.057 114.767 196.908 113.917C193.907 113.688 191.423 112.819 188.693 111.647C186.055 110.457 182.09 107.863 180.513 105.421C180.695 104.332 180.662 102.438 180.663 101.284L180.663 95.3136C180.725 89.7682 180.729 84.2227 180.675 78.6782C180.669 74.7518 180.601 70.9082 180.775 66.9842C183.296 69.9158 185.466 73.24 187.772 76.3448C188.416 77.2123 189.22 78.2345 189.71 79.179C189.437 80.1329 189.015 80.6466 189.05 81.7475C189.072 83.0855 189.524 84.3741 190.524 85.2943C192.361 86.9859 195.483 87.0058 197.153 85.0625C198.06 84.0083 198.595 82.909 198.496 81.4855C198.411 80.2825 197.823 79.0051 196.909 78.2017C195.519 77.0436 194.03 76.9822 192.341 77.0903C191.86 76.3898 191.242 75.6218 190.727 74.9066L186.582 69.1282C185.744 67.9636 184.427 66.2379 183.803 64.9983Z" fill="#628D8D"/>
<path d="M144.878 25.5309C146.539 25.4834 149.237 25.5905 150.824 26.062C153.892 29.9808 156.877 34.1767 159.798 38.2091L164.836 45.0641C167.915 49.2933 171.381 53.7177 174.333 57.9827C171.65 57.282 169.082 56.285 166.464 55.4176C164.149 54.6502 161.868 53.9181 159.553 53.1287C158.936 49.8239 155.887 47.5671 152.652 49.116C151.534 49.6418 150.678 50.594 150.277 51.7563C148.939 55.707 152.709 59.366 156.604 57.6407C157.258 57.3508 157.988 56.8364 158.647 56.4859C160.379 56.8999 163.606 58.1009 165.462 58.7069L170.334 60.2985C171.014 60.5244 172.335 60.9405 172.947 61.2317L172.95 61.3189L172.655 61.3891L144.797 70.3202L139.774 71.9056C139.13 72.114 136.264 73.1198 135.837 73.0982C133.985 73.0022 130.608 70.4232 129.294 69.2578C124.349 64.8926 121.381 58.7328 121.06 52.1681C120.602 43.8534 123.471 36.7101 129.937 31.3269C134.459 27.5611 139.043 25.8404 144.878 25.5309Z" fill="#204477"/>
<path d="M173.73 65.1267L173.871 65.1002L173.94 65.1815C172.688 67.3079 170.887 69.5961 169.45 71.6133C168.127 73.471 166.873 75.3365 165.6 77.2262C158.394 75.6833 157.194 84.6872 162.458 86.2673C163.777 86.6669 165.202 86.5155 166.406 85.8487C167.484 85.2623 168.276 84.2652 168.598 83.0873C168.966 81.7701 168.718 80.5801 168.066 79.4091C170.152 76.7047 172.11 73.7884 174.079 70.9915C175.033 69.6366 176.064 68.3347 176.971 66.9569C177.238 79.729 176.82 92.7969 177.016 105.594C175.608 108.073 171.929 110.331 169.383 111.549C160.997 115.292 151.877 114.713 144.14 109.616C138.737 106.055 134.996 99.9146 133.78 93.6436C132.919 89.2009 133.181 84.8974 134.776 80.6397C135.274 79.3122 135.918 77.1829 137.372 76.6735C139.774 75.832 142.224 75.1116 144.65 74.3341L158.904 69.756L168.681 66.6352C170.04 66.2056 172.434 65.3723 173.73 65.1267Z" fill="#204477"/>
<path d="M178.329 2.01145C183.653 1.84903 188.885 3.4183 193.23 6.48073C199.28 10.7251 202.652 16.6785 203.898 23.8926C203.254 24.9881 202.101 26.3954 201.294 27.444C200.181 28.8903 199.09 30.3528 198.02 31.8311L187.38 46.4974C185.139 49.528 182.684 52.5417 180.557 55.6293C180.581 53.4827 180.467 43.4523 180.615 40.6544C180.627 40.4267 181.109 40.0311 181.275 39.9329C184.963 37.751 184.147 32.0576 179.564 31.2083C178.967 31.1844 178.27 31.1754 177.697 31.3171C175.197 31.9348 173.663 34.6124 174.326 37.0767C174.753 38.6681 175.627 39.5822 176.976 40.394C177.097 41.0551 177.055 43.3785 177.072 44.1734C177.152 47.9072 176.868 51.9038 177.051 55.6149C176.653 55.0316 176.214 54.234 175.778 53.6903C174.394 51.9626 173.1 50.2723 171.791 48.4901L166.46 41.1228C164.021 37.8635 161.609 34.585 159.222 31.2878C158.301 29.979 157.366 28.6795 156.418 27.3896C155.634 26.3345 154.518 24.9484 153.92 23.8266C154.661 19.1582 157.102 13.6011 160.39 10.1156C165.373 4.8325 171.062 2.2524 178.329 2.01145Z" fill="#204477"/>
<path d="M507.509 112.682L470.486 3.85231H496.046L518.508 77.0227L542.829 3.54358H563.277L587.598 77.0227L610.06 3.85231H635L597.977 112.682H577.219L552.743 41.9812L528.267 112.682H507.509Z" fill="white"/>
<path d="M403.652 111.91V25.7727H370.656V3.85242H460.504V25.7727H427.508V111.91H403.652Z" fill="white"/>
<path d="M286.478 112.682L242.638 3.85242H268.973L297.321 79.9558L325.67 3.85242H351.385L307.545 112.682H286.478Z" fill="white"/>
<path d="M58.0067 113.762C24.2364 113.762 1 90.144 1 58.1899V57.8812C1 27.162 25.011 2 57.8518 2C77.3704 2 89.1435 7.2485 100.452 16.8193L85.4257 34.8804C77.0606 27.9338 69.6249 23.9202 57.0773 23.9202C39.7274 23.9202 25.9404 39.2026 25.9404 57.5724V57.8812C25.9404 77.6402 39.5725 92.1508 58.7813 92.1508C67.4562 92.1508 75.2017 89.9897 81.2432 85.6674V70.2306H57.2322V49.6997H104.325V96.6275C93.1712 106.044 77.8351 113.762 58.0067 113.762Z" fill="white"/>
<ellipse cx="358.647" cy="99.5604" rx="15.4938" ry="15.4396" fill="white"/>
<path d="M17.8031 162.303V141.823H10V137.839H29.9102V141.823H22.1071V162.303H17.8031Z" fill="white"/>
<path d="M35.2719 162.688C31.8077 162.688 28.6935 160.696 28.6935 156.991V156.921C28.6935 152.937 31.8427 150.98 36.3566 150.98C38.4211 150.98 39.8908 151.294 41.3254 151.749V151.294C41.3254 148.673 39.7158 147.275 36.7415 147.275C34.677 147.275 33.1374 147.729 31.4578 148.428L30.3031 145.108C32.3676 144.2 34.3621 143.605 37.3014 143.605C40.0657 143.605 42.1302 144.339 43.4249 145.667C44.7896 146.995 45.4195 148.953 45.4195 151.364V162.303H41.2904V159.997C40.0307 161.499 38.1062 162.688 35.2719 162.688ZM36.4616 159.612C39.2609 159.612 41.3954 158.005 41.3954 155.663V154.405C40.3107 153.985 38.876 153.671 37.1964 153.671C34.4671 153.671 32.8575 154.824 32.8575 156.746V156.816C32.8575 158.599 34.4321 159.612 36.4616 159.612Z" fill="white"/>
<path d="M50.5602 141.019V137H55.1091V141.019H50.5602ZM50.7002 162.303V143.85H54.9692V162.303H50.7002Z" fill="white"/>
<path d="M64.9464 162.443L58.9279 143.85H63.3018L67.0109 156.502L71.105 143.78H74.7441L78.8381 156.502L82.6172 143.85H86.8862L80.8326 162.443H77.0185L72.8895 149.826L68.7255 162.443H64.9464Z" fill="white"/>
<path d="M95.2771 162.688C91.8129 162.688 88.6986 160.696 88.6986 156.991V156.921C88.6986 152.937 91.8479 150.98 96.3618 150.98C98.4263 150.98 99.896 151.294 101.331 151.749V151.294C101.331 148.673 99.721 147.275 96.7467 147.275C94.6822 147.275 93.1426 147.729 91.463 148.428L90.3082 145.108C92.3728 144.2 94.3673 143.605 97.3066 143.605C100.071 143.605 102.135 144.339 103.43 145.667C104.795 146.995 105.425 148.953 105.425 151.364V162.303H101.296V159.997C100.036 161.499 98.1114 162.688 95.2771 162.688ZM96.4668 159.612C99.2661 159.612 101.401 158.005 101.401 155.663V154.405C100.316 153.985 98.8812 153.671 97.2016 153.671C94.4722 153.671 92.8626 154.824 92.8626 156.746V156.816C92.8626 158.599 94.4373 159.612 96.4668 159.612Z" fill="white"/>
<path d="M110.46 162.303V143.85H114.729V146.681C115.919 144.968 117.634 143.466 120.503 143.466C124.667 143.466 127.081 146.262 127.081 150.525V162.303H122.847V151.818C122.847 148.953 121.413 147.31 118.893 147.31C116.444 147.31 114.729 149.023 114.729 151.888V162.303H110.46Z" fill="white"/>
<path d="M154.792 162.723C147.129 162.723 142.09 157.271 142.09 150.141V150.071C142.09 143.221 147.339 137.419 154.722 137.419C158.991 137.419 161.615 138.608 164.135 140.74L161.405 143.99C159.516 142.417 157.661 141.404 154.547 141.404C150.033 141.404 146.604 145.318 146.604 150.001V150.071C146.604 155.104 149.928 158.808 154.932 158.808C157.241 158.808 159.341 158.074 160.846 156.956V152.413H154.582V148.638H165.01V158.913C162.595 160.975 159.131 162.723 154.792 162.723Z" fill="white"/>
<path d="M178.908 162.723C173.274 162.723 169.11 158.424 169.11 153.182V153.112C169.11 147.834 173.309 143.466 178.978 143.466C184.646 143.466 188.81 147.764 188.81 153.042V153.112C188.81 158.354 184.611 162.723 178.908 162.723ZM178.978 159.018C182.407 159.018 184.576 156.362 184.576 153.182V153.112C184.576 149.861 182.232 147.17 178.908 147.17C175.513 147.17 173.344 149.826 173.344 153.042V153.112C173.344 156.327 175.688 159.018 178.978 159.018Z" fill="white"/>
<path d="M197.906 162.443L190.313 143.85H194.862L199.831 157.41L204.835 143.85H209.279L201.721 162.443H197.906Z" fill="white"/>
<path d="M220.282 162.723C214.928 162.723 210.799 158.843 210.799 153.147V153.077C210.799 147.799 214.543 143.466 219.827 143.466C225.706 143.466 228.68 148.079 228.68 153.391C228.68 153.776 228.645 154.16 228.61 154.579H215.033C215.488 157.585 217.623 159.263 220.352 159.263C222.416 159.263 223.886 158.494 225.356 157.061L227.84 159.263C226.091 161.36 223.676 162.723 220.282 162.723ZM214.998 151.784H224.481C224.201 149.057 222.591 146.926 219.792 146.926C217.203 146.926 215.383 148.918 214.998 151.784Z" fill="white"/>
<path d="M232.897 162.303V143.85H237.166V148.009C238.321 145.248 240.455 143.361 243.709 143.501V147.974H243.464C239.755 147.974 237.166 150.386 237.166 155.278V162.303H232.897Z" fill="white"/>
<path d="M247.351 162.303V143.85H251.62V146.681C252.81 144.968 254.525 143.466 257.394 143.466C261.558 143.466 263.973 146.262 263.973 150.525V162.303H259.739V151.818C259.739 148.953 258.304 147.31 255.784 147.31C253.335 147.31 251.62 149.023 251.62 151.888V162.303H247.351Z" fill="white"/>
<path d="M269.05 162.303V143.85H273.319V146.646C274.509 145.003 276.119 143.466 278.953 143.466C281.612 143.466 283.502 144.759 284.482 146.716C285.951 144.759 287.911 143.466 290.71 143.466C294.734 143.466 297.184 146.017 297.184 150.525V162.303H292.95V151.818C292.95 148.883 291.585 147.31 289.206 147.31C286.896 147.31 285.252 148.918 285.252 151.888V162.303H281.018V151.784C281.018 148.918 279.618 147.31 277.273 147.31C274.929 147.31 273.319 149.057 273.319 151.888V162.303H269.05Z" fill="white"/>
<path d="M310.768 162.723C305.414 162.723 301.285 158.843 301.285 153.147V153.077C301.285 147.799 305.029 143.466 310.313 143.466C316.192 143.466 319.166 148.079 319.166 153.391C319.166 153.776 319.131 154.16 319.096 154.579H305.519C305.974 157.585 308.109 159.263 310.838 159.263C312.903 159.263 314.372 158.494 315.842 157.061L318.326 159.263C316.577 161.36 314.162 162.723 310.768 162.723ZM305.484 151.784H314.967C314.687 149.057 313.078 146.926 310.278 146.926C307.689 146.926 305.869 148.918 305.484 151.784Z" fill="white"/>
<path d="M323.383 162.303V143.85H327.652V146.681C328.842 144.968 330.556 143.466 333.426 143.466C337.59 143.466 340.004 146.262 340.004 150.525V162.303H335.77V151.818C335.77 148.953 334.335 147.31 331.816 147.31C329.367 147.31 327.652 149.023 327.652 151.888V162.303H323.383Z" fill="white"/>
<path d="M351.311 162.618C348.196 162.618 345.992 161.255 345.992 157.201V147.485H343.647V143.85H345.992V138.782H350.226V143.85H355.195V147.485H350.226V156.537C350.226 158.179 351.066 158.843 352.5 158.843C353.445 158.843 354.285 158.634 355.125 158.214V161.674C354.075 162.268 352.92 162.618 351.311 162.618Z" fill="white"/>
<path d="M370.484 162.303V137.839H379.617C387.315 137.839 392.633 143.116 392.633 150.001V150.071C392.633 156.956 387.315 162.303 379.617 162.303H370.484ZM379.617 141.753H374.788V158.389H379.617C384.76 158.389 388.12 154.929 388.12 150.141V150.071C388.12 145.283 384.76 141.753 379.617 141.753Z" fill="white"/>
<path d="M405.833 162.723C400.479 162.723 396.35 158.843 396.35 153.147V153.077C396.35 147.799 400.095 143.466 405.378 143.466C411.257 143.466 414.231 148.079 414.231 153.391C414.231 153.776 414.196 154.16 414.161 154.579H400.584C401.039 157.585 403.174 159.263 405.903 159.263C407.968 159.263 409.437 158.494 410.907 157.061L413.391 159.263C411.642 161.36 409.227 162.723 405.833 162.723ZM400.55 151.784H410.032C409.752 149.057 408.143 146.926 405.343 146.926C402.754 146.926 400.934 148.918 400.55 151.784Z" fill="white"/>
<path d="M424.817 162.653C422.192 162.653 419.288 161.744 416.979 159.892L418.868 157.026C420.898 158.529 423.032 159.298 424.922 159.298C426.741 159.298 427.791 158.529 427.791 157.306V157.236C427.791 155.803 425.831 155.313 423.662 154.649C420.933 153.88 417.888 152.762 417.888 149.267V149.197C417.888 145.667 420.793 143.536 424.467 143.536C426.776 143.536 429.296 144.339 431.255 145.632L429.576 148.638C427.791 147.555 425.901 146.891 424.362 146.891C422.717 146.891 421.772 147.694 421.772 148.708V148.778C421.772 150.141 423.767 150.7 425.936 151.399C428.631 152.238 431.675 153.461 431.675 156.781V156.851C431.675 160.731 428.666 162.653 424.817 162.653Z" fill="white"/>
<path d="M436.083 141.019V137H440.632V141.019H436.083ZM436.223 162.303V143.85H440.492V162.303H436.223Z" fill="white"/>
<path d="M454.249 167.965C451.204 167.965 448.37 167.196 445.991 165.763L447.565 162.583C449.56 163.806 451.624 164.505 454.144 164.505C457.923 164.505 459.987 162.583 459.987 158.878V157.48C458.448 159.437 456.523 160.835 453.479 160.835C449.105 160.835 445.081 157.62 445.081 152.203V152.133C445.081 146.681 449.175 143.466 453.479 143.466C456.593 143.466 458.518 144.899 459.952 146.611V143.85H464.186V158.529C464.186 161.639 463.381 163.946 461.842 165.484C460.162 167.161 457.573 167.965 454.249 167.965ZM454.598 157.236C457.538 157.236 460.022 155.174 460.022 152.168V152.098C460.022 149.092 457.538 147.065 454.598 147.065C451.659 147.065 449.35 149.057 449.35 152.098V152.168C449.35 155.174 451.694 157.236 454.598 157.236Z" fill="white"/>
<path d="M469.466 162.303V143.85H473.735V146.681C474.925 144.968 476.64 143.466 479.509 143.466C483.673 143.466 486.087 146.262 486.087 150.525V162.303H481.853V151.818C481.853 148.953 480.419 147.31 477.899 147.31C475.45 147.31 473.735 149.023 473.735 151.888V162.303H469.466Z" fill="white"/>
<path d="M510.754 162.653C507.01 162.653 503.475 161.36 500.536 158.738L503.126 155.663C505.47 157.69 507.849 158.843 510.859 158.843C513.518 158.843 515.198 157.585 515.198 155.768V155.698C515.198 153.95 514.218 153.007 509.669 151.958C504.455 150.7 501.516 149.162 501.516 144.654V144.584C501.516 140.39 505.015 137.489 509.879 137.489C513.448 137.489 516.282 138.573 518.767 140.565L516.457 143.815C514.253 142.172 512.048 141.299 509.809 141.299C507.29 141.299 505.82 142.592 505.82 144.2V144.269C505.82 146.157 506.94 146.995 511.663 148.114C516.842 149.372 519.502 151.224 519.502 155.278V155.348C519.502 159.927 515.897 162.653 510.754 162.653Z" fill="white"/>
<path d="M531.539 157.55L536.368 143.85H540.777L533.428 162.793C531.959 166.602 530.314 168 527.34 168C525.59 168 524.26 167.581 522.966 166.847L524.4 163.736C525.17 164.156 526.01 164.435 526.885 164.435C528.075 164.435 528.809 163.911 529.509 162.338L521.811 143.85H526.36L531.539 157.55Z" fill="white"/>
<path d="M550.055 162.653C547.431 162.653 544.527 161.744 542.217 159.892L544.107 157.026C546.136 158.529 548.271 159.298 550.16 159.298C551.98 159.298 553.03 158.529 553.03 157.306V157.236C553.03 155.803 551.07 155.313 548.901 154.649C546.171 153.88 543.127 152.762 543.127 149.267V149.197C543.127 145.667 546.031 143.536 549.705 143.536C552.015 143.536 554.534 144.339 556.494 145.632L554.814 148.638C553.03 147.555 551.14 146.891 549.6 146.891C547.956 146.891 547.011 147.694 547.011 148.708V148.778C547.011 150.141 549.006 150.7 551.175 151.399C553.869 152.238 556.914 153.461 556.914 156.781V156.851C556.914 160.731 553.904 162.653 550.055 162.653Z" fill="white"/>
<path d="M567.104 162.618C563.989 162.618 561.785 161.255 561.785 157.201V147.485H559.44V143.85H561.785V138.782H566.019V143.85H570.988V147.485H566.019V156.537C566.019 158.179 566.859 158.843 568.293 158.843C569.238 158.843 570.078 158.634 570.918 158.214V161.674C569.868 162.268 568.713 162.618 567.104 162.618Z" fill="white"/>
<path d="M583.252 162.723C577.898 162.723 573.769 158.843 573.769 153.147V153.077C573.769 147.799 577.513 143.466 582.797 143.466C588.675 143.466 591.65 148.079 591.65 153.391C591.65 153.776 591.615 154.16 591.58 154.579H578.003C578.458 157.585 580.592 159.263 583.322 159.263C585.386 159.263 586.856 158.494 588.326 157.061L590.81 159.263C589.06 161.36 586.646 162.723 583.252 162.723ZM577.968 151.784H587.451C587.171 149.057 585.561 146.926 582.762 146.926C580.172 146.926 578.353 148.918 577.968 151.784Z" fill="white"/>
<path d="M595.867 162.303V143.85H600.136V146.646C601.325 145.003 602.935 143.466 605.769 143.466C608.429 143.466 610.318 144.759 611.298 146.716C612.768 144.759 614.727 143.466 617.527 143.466C621.551 143.466 624 146.017 624 150.525V162.303H619.766V151.818C619.766 148.883 618.401 147.31 616.022 147.31C613.712 147.31 612.068 148.918 612.068 151.888V162.303H607.834V151.784C607.834 148.918 606.434 147.31 604.09 147.31C601.745 147.31 600.136 149.057 600.136 151.888V162.303H595.867Z" fill="white"/>
</svg>
